<?xml version="1.0" standalone="no"?>
<!DOCTYPE svg PUBLIC "-//W3C//DTD SVG 20010904//EN"
 "http://www.w3.org/TR/2001/REC-SVG-20010904/DTD/svg10.dtd">
<svg version="1.0" xmlns="http://www.w3.org/2000/svg"
 width="300.000000pt" height="300.000000pt" viewBox="0 0 300.000000 300.000000"
 preserveAspectRatio="xMidYMid meet">
<metadata>
Created by potrace 1.10, written by Peter Selinger 2001-2011
</metadata>
<g transform="translate(0.000000,300.000000) scale(0.100000,-0.100000)"
fill="#000000" stroke="none">
<path d="M860 2050 c0 -7 3 -10 7 -7 3 4 3 10 0 14 -4 3 -7 0 -7 -7z"/>
<path d="M887 2054 c-3 -3 -1 -14 5 -24 7 -10 8 -25 3 -36 -5 -11 -13 -37 -19
-59 -11 -39 -13 -40 -81 -58 -77 -21 -125 -56 -125 -93 0 -13 -5 -26 -11 -30
-6 -3 -8 -17 -4 -32 8 -31 -7 -42 -56 -42 -75 0 -128 -36 -113 -75 5 -13 14
-15 35 -11 96 20 89 21 89 -12 0 -35 -2 -37 -130 -62 -52 -11 -104 -22 -115
-25 -13 -4 -29 1 -44 14 -29 25 -44 26 -62 5 -11 -13 -8 -19 17 -39 34 -28
150 -41 273 -32 l76 6 23 -39 c42 -74 102 -61 102 21 0 51 14 56 39 15 27 -43
27 -73 0 -95 -19 -15 -20 -18 -5 -30 9 -7 23 -11 31 -7 24 9 20 101 -6 142
-11 19 -16 34 -11 34 16 0 72 -50 72 -65 0 -7 6 -18 13 -24 8 -6 19 -29 26
-50 9 -32 22 -47 69 -76 90 -56 121 -62 178 -34 26 12 59 24 74 26 14 1 86
-17 160 -41 74 -24 179 -54 232 -66 92 -21 99 -21 145 -6 100 33 356 45 455
22 63 -15 68 -18 121 -59 38 -29 365 -177 392 -177 28 0 15 16 -32 39 -136 66
-306 184 -421 294 -57 54 -66 59 -95 53 -29 -6 -36 -1 -93 60 l-62 66 -21 -24
c-21 -22 -30 -23 -144 -23 -89 -1 -135 -5 -170 -18 -50 -18 -107 -23 -107 -9
0 5 14 34 31 66 37 68 34 97 -13 117 -18 8 -35 14 -38 14 -14 0 -256 140 -263
152 -4 7 -14 13 -22 13 -8 0 -49 18 -92 41 -67 35 -83 40 -119 34 -37 -5 -44
-3 -54 14 -14 27 -37 27 -45 1 -3 -11 -17 -28 -31 -39 -13 -10 -24 -25 -24
-33 0 -8 -7 -23 -15 -34 -14 -18 -14 -17 -15 14 0 18 -7 49 -15 69 -19 46 -21
43 20 40 19 -1 35 -5 35 -9 0 -5 5 -8 11 -8 5 0 7 4 4 10 -3 5 4 22 15 38 20
27 21 31 7 64 -13 31 -13 38 0 50 12 13 10 18 -21 41 -35 27 -48 32 -59 21z
m117 -281 c-9 -38 -12 -39 -31 -20 -13 13 -14 19 -3 31 21 27 41 20 34 -11z
m-55 -59 c-14 -18 -24 -11 -15 11 3 9 11 13 16 10 8 -5 7 -11 -1 -21z m-279
-123 c0 -10 -22 -31 -32 -31 -4 0 -8 11 -8 24 0 19 4 23 20 19 11 -3 20 -8 20
-12z m60 -148 c0 -70 -30 -80 -64 -22 -21 35 -21 34 24 47 19 6 36 11 38 11 1
1 2 -16 2 -36z m1347 -134 c42 -20 56 -39 30 -39 -7 0 -38 8 -68 17 -34 11
-86 17 -142 16 -48 0 -86 2 -84 3 10 10 91 22 151 23 52 1 81 -4 113 -20z
m-280 -15 c-3 -3 -12 -4 -19 -1 -8 3 -5 6 6 6 11 1 17 -2 13 -5z"/>
<path d="M861 1954 c0 -11 3 -14 6 -6 3 7 2 16 -1 19 -3 4 -6 -2 -5 -13z"/>
<path d="M954 1858 c-4 -7 -3 -8 4 -4 12 7 16 16 8 16 -3 0 -8 -5 -12 -12z"/>
</g>
</svg>
